<?xml version="1.0" encoding="UTF-8" standalone="no"?>
<svg
   width="228.35001mm"
   height="50.41013mm"
   viewBox="0 0 228.35001 50.41013"
   version="1.1"
   id="svg1"
   sodipodi:docname="Logo stair - Flat - Light with path.svg"
   xml:space="preserve"
   inkscape:version="1.3.2 (091e20ef0f, 2023-11-25)"
   xmlns:inkscape="http://www.inkscape.org/namespaces/inkscape"
   xmlns:sodipodi="http://sodipodi.sourceforge.net/DTD/sodipodi-0.dtd"
   xmlns="http://www.w3.org/2000/svg"
   xmlns:svg="http://www.w3.org/2000/svg"><defs
     id="defs1" /><sodipodi:namedview
     id="namedview1"
     pagecolor="#ffffff"
     bordercolor="#000000"
     borderopacity="0.25"
     inkscape:showpageshadow="2"
     inkscape:pageopacity="0.0"
     inkscape:pagecheckerboard="0"
     inkscape:deskcolor="#d1d1d1"
     inkscape:document-units="mm"
     inkscape:zoom="1.5997115"
     inkscape:cx="416.95018"
     inkscape:cy="124.70999"
     inkscape:window-width="2560"
     inkscape:window-height="1371"
     inkscape:window-x="0"
     inkscape:window-y="32"
     inkscape:window-maximized="1"
     inkscape:current-layer="svg1" /><path
     id="Sketch_w0000"
     d="m 0.175,25.23513 h 38 v 5 h 38 v 5 h 38 v 5 h 38 v 5 h 38 v 5 h 38"
     stroke="#000000"
     stroke-width="0.35 px"
     style="fill:none;fill-opacity:1;fill-rule:evenodd;stroke-width:1;stroke-linecap:square;stroke-miterlimit:4;stroke-dasharray:none;stroke:#ffffff;stroke-opacity:1"
     inkscape:label="Stair" /><path
     style="font-weight:300;font-size:39px;font-family:Poppins;-inkscape-font-specification:'Poppins Light';fill:#ffffff;stroke-width:0.264583"
     d="m 8.7454908,10.959001 q 0,-3.3150001 1.3260002,-5.7720001 1.326,-2.496 3.666,-3.822 2.34,-1.36499999973145 5.343,-1.36499999973145 3.939,0 6.474,1.94999999973145 2.574,1.95 3.315,5.304 h -2.925 q -0.546,-2.301 -2.379,-3.588 -1.794,-1.326 -4.485,-1.326 -2.145,0 -3.861,0.975 -1.716,0.975 -2.73,2.925 -0.975,1.911 -0.975,4.7190001 0,2.808 0.975,4.758 1.014,1.95 2.73,2.925 1.716,0.975 3.861,0.975 2.691,0 4.485,-1.287 1.833,-1.326 2.379,-3.666 h 2.925 q -0.741,3.276 -3.315,5.265 -2.574,1.989 -6.474,1.989 -3.003,0 -5.343,-1.326 -2.34,-1.365 -3.666,-3.822 -1.3260002,-2.496 -1.3260002,-5.811 z"
     id="text1"
     inkscape:label="c"
     aria-label="c" /><path
     style="font-weight:300;font-size:39px;font-family:Poppins;-inkscape-font-specification:'Poppins Light';fill:#ffffff;stroke-width:0.264583"
     d="m 56.245066,27.094412 q -3.003,0 -5.421,-1.326 -2.379,-1.365 -3.783,-3.822 -1.365,-2.496 -1.365,-5.811 0,-3.315 1.404,-5.772 1.404,-2.4960004 3.822,-3.8220004 2.418,-1.365 5.421,-1.365 3.003,0 5.421,1.365 2.457,1.326 3.822,3.8220004 1.404,2.457 1.404,5.772 0,3.276 -1.404,5.772 -1.404,2.496 -3.861,3.861 -2.457,1.326 -5.46,1.326 z m 0,-2.379 q 2.106,0 3.9,-0.936 1.794,-0.975 2.886,-2.886 1.131,-1.95 1.131,-4.758 0,-2.808 -1.092,-4.719 -1.092,-1.9500004 -2.886,-2.8860004 -1.794,-0.975 -3.9,-0.975 -2.106,0 -3.9,0.975 -1.794,0.936 -2.886,2.8860004 -1.053,1.911 -1.053,4.719 0,2.808 1.053,4.758 1.092,1.911 2.847,2.886 1.794,0.936 3.9,0.936 z"
     id="text1-5"
     inkscape:label="o"
     aria-label="o" /><path
     style="font-weight:300;font-size:39px;font-family:Poppins;-inkscape-font-specification:'Poppins Light';fill:#ffffff;stroke-width:0.264583"
     d="m 105.96838,20.155011 q 0,1.404 -0.078,2.145 H 88.223382 q 0.117,2.418 1.17,4.134 1.053,1.716 2.769,2.613 1.716,0.858 3.744,0.858 2.652,0 4.445998,-1.287 1.833,-1.287 2.418,-3.471 h 2.886 q -0.78,3.12 -3.354,5.109 -2.534998,1.95 -6.395998,1.95 -3.003,0 -5.382,-1.326 -2.379,-1.365 -3.744,-3.822 -1.326,-2.496 -1.326,-5.811 0,-3.315 1.326,-5.811 1.326,-2.496 3.705,-3.822 2.379,-1.326 5.421,-1.326 3.042,0 5.303998,1.326 2.301,1.326 3.51,3.588 1.248,2.223 1.248,4.953 z m -2.769,-0.078 q 0.039,-2.379 -0.975,-4.056 -0.975,-1.677 -2.690998,-2.535 -1.716,-0.858 -3.744,-0.858 -3.042,0 -5.187,1.95 -2.145,1.95 -2.379,5.499 z"
     id="text1-9"
     inkscape:label="e"
     aria-label="e" /><path
     style="font-weight:300;font-size:39px;font-family:Poppins;-inkscape-font-specification:'Poppins Light';fill:#ffffff;stroke-width:0.264583"
     d="m 135.29998,16.239611 q 3.822,0 6.24,2.379 2.418,2.34 2.418,6.825 v 12.48 h -2.691 v -12.168 q 0,-3.471 -1.755,-5.304 -1.716,-1.833 -4.719,-1.833 -3.081,0 -4.914,1.95 -1.833,1.95 -1.833,5.733 v 11.622 h -2.73 v -21.294 h 2.73 v 3.627 q 1.014,-1.95 2.925,-2.964 1.911,-1.053 4.329,-1.053 z"
     id="text1-93"
     inkscape:label="n"
     aria-label="n" /><path
     style="font-weight:300;font-size:39px;font-family:Poppins;-inkscape-font-specification:'Poppins Light';fill:#ffffff;stroke-width:0.264583"
     d="m 182.73755,29.69702 q 0,1.404 -0.078,2.145 h -17.667 q 0.117,2.418 1.17,4.134 1.053,1.716 2.769,2.613 1.716,0.858 3.744,0.858 2.652,0 4.446,-1.287 1.833,-1.287 2.418,-3.471 h 2.886 q -0.78,3.12 -3.354,5.109 -2.535,1.95 -6.396,1.95 -3.003,0 -5.382,-1.326 -2.379,-1.365 -3.744,-3.822 -1.326,-2.496 -1.326,-5.811 0,-3.315 1.326,-5.811 1.326,-2.496 3.705,-3.822 2.379,-1.326 5.421,-1.326 3.042,0 5.304,1.326 2.301,1.326 3.51,3.588 1.248,2.223 1.248,4.953 z m -2.769,-0.078 q 0.039,-2.379 -0.975,-4.056 -0.975,-1.677 -2.691,-2.535 -1.716,-0.858 -3.744,-0.858 -3.042,0 -5.187,1.95 -2.145,1.95 -2.379,5.499 z"
     id="text1-6"
     inkscape:label="e"
     aria-label="e" /><path
     style="font-weight:300;font-size:39px;font-family:Poppins;-inkscape-font-specification:'Poppins Light';fill:#ffffff;stroke-width:0.264583"
     d="m 210.41951,25.759085 q 3.822,0 6.24,2.379 2.418,2.34 2.418,6.825 v 12.48 h -2.691 v -12.168 q 0,-3.471 -1.755,-5.304 -1.716,-1.833 -4.719,-1.833 -3.081,0 -4.914,1.95 -1.833,1.95 -1.833,5.733 v 11.622 h -2.73 v -21.294 h 2.73 v 3.627 q 1.014,-1.95 2.925,-2.964 1.911,-1.053 4.329,-1.053 z"
     id="text1-0"
     inkscape:label="n"
     aria-label="n" /></svg>
